<svg xmlns="http://www.w3.org/2000/svg" width="29" height="29">
    <path fill-rule="evenodd"
          d="M14.5,0.5 C22.2319865,0.5 28.5,6.7680135 28.5,14.5 C28.5,22.2319865 22.2319865,28.5 14.5,28.5 C6.7680135,28.5 0.5,22.2319865 0.5,14.5 C0.5,6.7680135 6.7680135,0.5 14.5,0.5 Z M23.0252438,9.25219941 C22.612245,8.88552464 21.9801946,8.92307774 21.6135198,9.3360766 L21.6135198,9.3360766 L13.317,18.68 L8.70736042,14.0668486 L8.61318294,13.9836262 C8.22100119,13.6784606 7.65376022,13.7059866 7.29314695,14.0663412 C6.90248258,14.4567254 6.90225542,15.0898903 7.29263958,15.4805547 L7.29263958,15.4805547 L12.6530904,20.8448532 L12.744064,20.9255949 C13.153746,21.247211 13.753303,21.2017146 14.1082514,20.8019236 L14.1082514,20.8019236 L23.109121,10.6639234 L23.1865757,10.564948 C23.4677968,10.1552563 23.4064735,9.59066843 23.0252438,9.25219941 Z"/>
</svg>
