<svg xmlns="http://www.w3.org/2000/svg" width="7" height="12" viewBox="0 0 7 12">
  <path fill-rule="evenodd" d="M10.7928932,8.8817842e-16 C11.0690356,1.77635684e-15 11.2928932,0.223857625 11.2928932,0.5 C11.2928932,0.632608245 11.2402148,0.759785201 11.1464466,0.853553391 L6.499,5.5 L11,5.5 C11.2761424,5.5 11.5,5.72385763 11.5,6 C11.5,6.24545989 11.3231248,6.44960837 11.0898756,6.49194433 L11,6.5 L1,6.5 C0.723857625,6.5 0.5,6.27614237 0.5,6 C0.5,5.75454011 0.676875161,5.55039163 0.910124368,5.50805567 L1,5.5 L5.5,5.5 L0.853553391,0.853553391 C0.658291245,0.658291245 0.658291245,0.341708755 0.853553391,0.146446609 C0.94732158,0.0526784202 1.07449854,-2.66453526e-15 1.20710678,0 L10.7928932,8.8817842e-16 Z" transform="rotate(-90 6.25 5.75)"/>
</svg>
