<svg xmlns="http://www.w3.org/2000/svg" width="16" height="16" viewBox="0 0 16 16">
  <path  d="M4.0365283,15.8861887 C2.96935849,15.8861887 1.96890566,15.4732075 1.21932075,14.7233208 C0.469735849,13.973434 0.0564528302,12.973283 0.0564528302,11.9061132 C0.0564528302,10.8392453 0.469433962,9.83879245 1.21932075,9.08920755 L9.45901887,0.849509434 C10.6378868,-0.328754717 12.4697358,-0.275924528 13.7198491,0.974188679 C14.9699623,2.22430189 15.0236981,4.05584906 13.8448302,5.23501887 L6.10415094,12.9756981 C5.37750943,13.7023396 4.19411321,13.7035472 3.46626415,12.9756981 C2.73901887,12.2481509 2.73932075,11.0647547 3.46626415,10.3378113 L8.70973585,5.09433962 C8.88664151,4.91743396 9.17313208,4.91743396 9.35003774,5.09433962 C9.5269434,5.27124528 9.5269434,5.55773585 9.35003774,5.73464151 L4.10656604,10.9781132 C3.7325283,11.3521509 3.7325283,11.9610566 4.10656604,12.3353962 C4.48120755,12.709434 5.08981132,12.7088302 5.46384906,12.3353962 L13.2045283,4.59471698 C14.0181132,3.78083019 13.9646792,2.49962264 13.0795472,1.61449057 C12.1944151,0.729358491 10.9132075,0.675924528 10.0993208,1.48981132 L1.85962264,9.72950943 C1.28090566,10.3082264 0.962113208,11.0813585 0.962113208,11.9061132 C0.962113208,12.7311698 1.28090566,13.5043019 1.85962264,14.0830189 C2.43833962,14.6617358 3.2114717,14.9805283 4.0365283,14.9805283 C4.86128302,14.9805283 5.63441509,14.6617358 6.21313208,14.0830189 L14.4528302,5.84332075 C14.6297358,5.66641509 14.9162264,5.66641509 15.0931321,5.84332075 C15.2700377,6.02022642 15.2700377,6.30671698 15.0931321,6.48362264 L6.85343396,14.7233208 C6.10384906,15.4729057 5.10339623,15.8861887 4.0365283,15.8861887 Z" transform="translate(.067)"/>
</svg>
