<?xml version="1.0" encoding="UTF-8"?>
<svg width="14px" height="10px" viewBox="0 0 14 10" version="1.1" xmlns="http://www.w3.org/2000/svg" xmlns:xlink="http://www.w3.org/1999/xlink">
    <!-- Generator: Sketch 52.6 (67491) - http://www.bohemiancoding.com/sketch -->
    <title>Plus</title>
    <desc>Created with Sketch.</desc>
    <g id="Time-Off-Reports" stroke="none" stroke-width="1" fill="none" fill-rule="evenodd">
        <g id="Time-Off-Reports---375" transform="translate(-335.000000, -105.000000)" fill="#343949" fill-rule="nonzero">
            <g id="Buttons/Secondary/Medium/Icon" transform="translate(324.000000, 92.000000)">
                <g id="Icons/List" transform="translate(11.000000, 11.000000)">
                    <path d="M13.66,2.76666667 C13.8661863,2.76666667 14.0333333,2.99052429 14.0333333,3.26666667 C14.0333333,3.54280904 13.8661863,3.76666667 13.66,3.76666667 L3.20666667,3.76666667 C3.00048036,3.76666667 2.83333333,3.54280904 2.83333333,3.26666667 C2.83333333,2.99052429 3.00048036,2.76666667 3.20666667,2.76666667 L13.66,2.76666667 Z M13.66,6.5 C13.8661863,6.5 14.0333333,6.72385763 14.0333333,7 C14.0333333,7.27614237 13.8661863,7.5 13.66,7.5 L3.20666667,7.5 C3.00048036,7.5 2.83333333,7.27614237 2.83333333,7 C2.83333333,6.72385763 3.00048036,6.5 3.20666667,6.5 L13.66,6.5 Z M13.66,10.2333333 C13.8661863,10.2333333 14.0333333,10.457191 14.0333333,10.7333333 C14.0333333,11.0094757 13.8661863,11.2333333 13.66,11.2333333 L3.20666667,11.2333333 C3.00048036,11.2333333 2.83333333,11.0094757 2.83333333,10.7333333 C2.83333333,10.457191 3.00048036,10.2333333 3.20666667,10.2333333 L13.66,10.2333333 Z M1.4,3.73333333 C1.14226712,3.73333333 0.933333333,3.52439955 0.933333333,3.26666667 C0.933333333,3.00893378 1.14226712,2.8 1.4,2.8 C1.65773288,2.8 1.86666667,3.00893378 1.86666667,3.26666667 C1.86666667,3.52439955 1.65773288,3.73333333 1.4,3.73333333 Z M1.4,7.46666667 C1.14226712,7.46666667 0.933333333,7.25773288 0.933333333,7 C0.933333333,6.74226712 1.14226712,6.53333333 1.4,6.53333333 C1.65773288,6.53333333 1.86666667,6.74226712 1.86666667,7 C1.86666667,7.25773288 1.65773288,7.46666667 1.4,7.46666667 Z M1.4,11.2 C1.14226712,11.2 0.933333333,10.9910662 0.933333333,10.7333333 C0.933333333,10.4756005 1.14226712,10.2666667 1.4,10.2666667 C1.65773288,10.2666667 1.86666667,10.4756005 1.86666667,10.7333333 C1.86666667,10.9910662 1.65773288,11.2 1.4,11.2 Z" id="Combined-Shape"></path>
                </g>
            </g>
        </g>
    </g>
</svg>