<?xml version="1.0" encoding="UTF-8"?>
<svg width="48px" height="54px" viewBox="0 0 48 54" version="1.1" xmlns="http://www.w3.org/2000/svg" xmlns:xlink="http://www.w3.org/1999/xlink">
    <!-- Generator: Sketch 52.6 (67491) - http://www.bohemiancoding.com/sketch -->
    <title>bill</title>
    <desc>Created with Sketch.</desc>
    <g id="Symbols" stroke="none" stroke-width="1" fill="none" fill-rule="evenodd">
        <g id="IIcons/Empty-State-Image/Payment" fill-rule="nonzero">
            <g id="bill">
                <path d="M42.5482271,52.9473684 L5.45041048,52.9473684 C3.01949345,52.9473684 1.04876856,50.9681053 1.04876856,48.5264211 L1.04876856,1.15936842 L1.04730131,1.15789474 L4.75724017,4.88410526 L8.46717904,1.15789474 L12.1771179,4.88410526 L15.8870568,1.15789474 L19.5969956,4.88410526 L23.3069345,1.15789474 L27.0168734,4.88410526 L30.7268122,1.15789474 L34.4367511,4.88410526 L38.14669,1.15789474 L38.14669,27.0526316" id="Path" fill="#FFFFFF"></path>
                <path d="M42.5496943,52.9473684 C40.1187773,52.9473684 38.1480524,50.9681053 38.1480524,48.5264211 L38.1480524,27.0526316 L46.9513362,27.0526316 L46.9513362,48.5264211 C46.9513362,50.9681053 44.9807162,52.9473684 42.5496943,52.9473684 Z" id="Path" fill-opacity="0.309085446" fill="#1975F0"></path>
                <path d="M46.9513362,26.0001053 L39.1946201,26.0001053 L39.1946201,1.15789474 C39.1946201,0.732210526 38.939214,0.348315789 38.5476681,0.185368421 C38.1559127,0.0223157895 37.7051528,0.112631579 37.4055197,0.413473684 L34.4365415,3.39536842 L31.4677729,0.413684211 C31.0585153,0.00263157895 30.3948996,0.00263157895 29.9855371,0.413684211 L27.0166638,3.39557895 L24.0481048,0.413684211 C23.6388472,0.00263157895 22.9752314,0.00263157895 22.565869,0.413684211 L19.5969956,3.39557895 L16.6280175,0.413684211 C16.2187598,0.00263157895 15.5551441,0.00263157895 15.1458865,0.413684211 L12.1770131,3.39557895 L9.20834934,0.413684211 C8.7990917,0.00263157895 8.13547598,0.00263157895 7.72611354,0.413684211 L4.75724017,3.39557895 L1.78847162,0.413684211 C1.38172926,0.00515789474 0.723877729,0.00305263158 0.313572052,0.407894737 C0.0980960699,0.620631579 -0.0063930131,0.904105263 0.000838427948,1.18568421 L0.000838427948,48.5265263 C0.000838427948,51.5446316 2.44548472,54 5.45041048,54 L42.5483319,54 C42.5485415,54 42.5486463,54 42.5488559,54 C42.5491703,54 42.5494847,54 42.5497991,54 C45.5547249,54 47.9993712,51.5446316 47.9993712,48.5265263 L47.9993712,27.0526316 C47.9993712,26.4712632 47.5301659,26.0001053 46.9513362,26.0001053 Z M2.09680349,48.5264211 L2.09680349,3.70063158 L4.01617467,5.62842105 C4.42543231,6.03947368 5.08904803,6.03947368 5.49841048,5.62842105 L8.46728384,2.64652632 L11.4361572,5.62842105 C11.8454148,6.03947368 12.5090306,6.03947368 12.918393,5.62842105 L15.8872664,2.64652632 L18.8562445,5.62842105 C19.2655022,6.03947368 19.9291179,6.03947368 20.3383755,5.62842105 L23.3072489,2.64652632 L26.2761223,5.62842105 C26.6853799,6.03947368 27.3489956,6.03947368 27.7583581,5.62842105 L30.7272314,2.64652632 L33.6961048,5.62842105 C34.1054672,6.03947368 34.769083,6.03947368 35.1782358,5.62842105 L37.099179,3.69915789 L37.099179,27.0526316 C37.099179,27.0622105 37.1003319,27.0715789 37.1006463,27.0811579 L37.1006463,48.5264211 C37.1006463,49.7961053 37.5345328,50.9651579 38.2594585,51.8947368 L5.45041048,51.8947368 C3.60115284,51.8947368 2.09680349,50.3837895 2.09680349,48.5264211 Z M45.9033013,48.5264211 C45.9033013,50.3836842 44.3988472,51.8947368 42.5496943,51.8947368 C40.7005415,51.8947368 39.1960873,50.3836842 39.1960873,48.5264211 L39.1960873,28.1052632 L45.9033013,28.1052632 L45.9033013,48.5264211 Z" id="Shape" fill="#1975F0"></path>
                <path d="M19.5977293,22.1765263 C20.6379039,22.1765263 21.4840873,21.4488421 21.4840873,20.5543158 C21.4840873,19.6597895 20.6379039,18.932 19.5977293,18.932 C17.4018865,18.932 15.6153013,17.2598947 15.6153013,15.2046316 C15.6153013,13.4888421 16.8606812,12.0409474 18.5496943,11.6091579 L18.5496943,10.8961053 C18.5496943,10.3147368 19.0188996,9.84347368 19.5977293,9.84347368 C20.176559,9.84347368 20.6457642,10.3147368 20.6457642,10.8961053 L20.6457642,11.6091579 C22.3346725,12.0409474 23.5801572,13.4887368 23.5801572,15.2046316 C23.5801572,15.786 23.110952,16.2572632 22.5321223,16.2572632 C21.9532926,16.2572632 21.4840873,15.786 21.4840873,15.2046316 C21.4840873,14.3101053 20.6377991,13.5823158 19.5977293,13.5823158 C18.5576594,13.5823158 17.7113712,14.3101053 17.7113712,15.2046316 C17.7113712,16.0990526 18.5575546,16.8268421 19.5977293,16.8268421 C21.7936769,16.8268421 23.5801572,18.4990526 23.5801572,20.5543158 C23.5801572,22.2702105 22.3347773,23.718 20.6457642,24.1497895 L20.6457642,25.0087368 C20.6457642,25.5901053 20.176559,26.0613684 19.5977293,26.0613684 C19.0188996,26.0613684 18.5496943,25.5901053 18.5496943,25.0087368 L18.5496943,24.1497895 C16.860786,23.718 15.6153013,22.2702105 15.6153013,20.5543158 C15.6153013,19.9729474 16.0845066,19.5016842 16.6633362,19.5016842 C17.2421659,19.5016842 17.7113712,19.9729474 17.7113712,20.5543158 C17.7113712,21.4487368 18.5575546,22.1765263 19.5977293,22.1765263 Z M28.0841921,18.9322105 C27.5054672,18.9322105 27.036262,18.4609474 27.0361572,17.8795789 C27.0361572,17.2982105 27.5053624,16.8269474 28.0841921,16.8269474 L30.1268122,16.8269474 C30.7056419,16.8269474 31.1748472,17.2982105 31.1748472,17.8795789 C31.1748472,18.4609474 30.7056419,18.9322105 30.1268122,18.9322105 L28.0841921,18.9322105 Z M11.1112664,16.8269474 C11.6900961,16.8269474 12.1593013,17.2982105 12.1593013,17.8795789 C12.1593013,18.4609474 11.6900961,18.9322105 11.1112664,18.9322105 L9.06864629,18.9322105 C8.48981659,18.9322105 8.02061135,18.4609474 8.02061135,17.8795789 C8.02061135,17.2982105 8.48981659,16.8269474 9.06864629,16.8269474 L11.1112664,16.8269474 Z M30.6571179,28.5270526 C31.2359476,28.5270526 31.705048,28.9983158 31.7051528,29.5796842 C31.7051528,30.1610526 31.2359476,30.6323158 30.6571179,30.6323158 L14.0538341,30.6323158 C13.4750044,30.6323158 13.0057991,30.1610526 13.0057991,29.5796842 C13.0057991,28.9983158 13.4750044,28.5270526 14.0538341,28.5270526 L30.6571179,28.5270526 Z M8.538131,28.5270526 C8.81376419,28.5270526 9.08415721,28.6396842 9.2790917,28.8354737 C9.4740262,29.0312632 9.58616594,29.3028421 9.58616594,29.5796842 C9.58616594,29.8565263 9.4740262,30.1281053 9.2790917,30.3238947 C9.08415721,30.5196842 8.81376419,30.6323158 8.538131,30.6323158 C8.26249782,30.6323158 7.9921048,30.5196842 7.79717031,30.3238947 C7.60223581,30.1281053 7.49009607,29.8565263 7.49009607,29.5796842 C7.49009607,29.3028421 7.60223581,29.0312632 7.79717031,28.8354737 C7.9921048,28.6396842 8.26249782,28.5270526 8.538131,28.5270526 Z M30.6571179,35.4742105 C31.2359476,35.4742105 31.7051528,35.9454737 31.7051528,36.5268421 C31.7051528,37.1082105 31.2359476,37.5794737 30.6571179,37.5794737 L14.0538341,37.5794737 C13.4750044,37.5794737 13.0057991,37.1082105 13.0057991,36.5268421 C13.0057991,35.9454737 13.4750044,35.4742105 14.0538341,35.4742105 L30.6571179,35.4742105 Z M8.538131,35.4742105 C8.81376419,35.4742105 9.08415721,35.5868421 9.2790917,35.7826316 C9.4740262,35.9784211 9.58616594,36.25 9.58616594,36.5268421 C9.58616594,36.8036842 9.4740262,37.0752632 9.2790917,37.2710526 C9.08415721,37.4668421 8.81376419,37.5794737 8.538131,37.5794737 C8.26249782,37.5794737 7.9921048,37.4668421 7.79717031,37.2710526 C7.60223581,37.0752632 7.49009607,36.8036842 7.49009607,36.5268421 C7.49009607,36.25 7.60223581,35.9784211 7.79717031,35.7826316 C7.9921048,35.5868421 8.26249782,35.4742105 8.538131,35.4742105 Z M30.6571179,42.4213684 C31.2359476,42.4213684 31.705048,42.8926316 31.7051528,43.474 C31.7051528,44.0553684 31.2359476,44.5266316 30.6571179,44.5266316 L14.0538341,44.5266316 C13.4750044,44.5266316 13.0057991,44.0553684 13.0057991,43.474 C13.0057991,42.8926316 13.4750044,42.4213684 14.0538341,42.4213684 L30.6571179,42.4213684 Z M8.538131,42.4213684 C8.81376419,42.4213684 9.08415721,42.534 9.2790917,42.7297895 C9.4740262,42.9255789 9.58616594,43.1971579 9.58616594,43.474 C9.58616594,43.7508421 9.4740262,44.0224211 9.2790917,44.2182105 C9.08415721,44.414 8.81376419,44.5266316 8.538131,44.5266316 C8.26249782,44.5266316 7.9921048,44.414 7.79717031,44.2182105 C7.60223581,44.0224211 7.49009607,43.7508421 7.49009607,43.474 C7.49009607,43.1971579 7.60223581,42.9255789 7.79717031,42.7297895 C7.9921048,42.534 8.26249782,42.4213684 8.538131,42.4213684 Z" id="Combined-Shape" fill="#1975F0"></path>
            </g>
        </g>
    </g>
</svg>