<svg xmlns="http://www.w3.org/2000/svg" fill="#1975f0" width="16" height="15" viewBox="0 0 16 15">
    <path d="M14.6666667,0 C15.402,0 16,0.608872727 16,1.35757576 L16,1.35757576 L16,10.1818182 C16,10.9305212 15.402,11.5393939 14.6666667,11.5393939 L14.6666667,11.5393939 L6.32066667,11.5393939 L3.854,14.6787879 C3.72466667,14.8430545 3.532,14.9333333 3.33333333,14.9333333 C3.26,14.9333333 3.18466667,14.9204364 3.11266667,14.8953212 C2.846,14.7996121 2.66666667,14.5430303 2.66666667,14.2545455 L2.66666667,14.2545455 L2.66666667,11.5393939 L1.33333333,11.5393939 C0.598,11.5393939 0,10.9305212 0,10.1818182 L0,10.1818182 L0,1.35757576 C0,0.608872727 0.598,0 1.33333333,0 L1.33333333,0 Z M14.6666667,1.35757576 L1.33333333,1.35757576 L1.33333333,10.1818182 L3.33333333,10.1818182 C3.702,10.1818182 4,10.4859152 4,10.8606061 L4,10.8606061 L4,12.3193212 L5.47933333,10.4363636 C5.48733333,10.4268606 5.49866667,10.4221091 5.50733333,10.4132848 C5.53866667,10.3766303 5.576,10.3501576 5.61466667,10.3216485 C5.64733333,10.2972121 5.67733333,10.2714182 5.71266667,10.2544485 C5.75,10.2361212 5.79066667,10.2279758 5.83133333,10.2164364 C5.87533333,10.204897 5.918,10.192 5.96333333,10.1892848 L5.96333333,10.1892848 L6,10.1818182 L14.6666667,10.1818182 L14.6666667,1.35757576 Z M9.92,6.4 C10.3329067,6.4 10.6666667,6.63893333 10.6666667,6.93333333 C10.6666667,7.22773333 10.3329067,7.46666667 9.92,7.46666667 L9.92,7.46666667 L3.94666667,7.46666667 C3.53376,7.46666667 3.2,7.22773333 3.2,6.93333333 C3.2,6.63893333 3.53376,6.4 3.94666667,6.4 L3.94666667,6.4 Z M12.1142857,4.26666667 C12.4934857,4.26666667 12.8,4.5056 12.8,4.8 C12.8,5.0944 12.4934857,5.33333333 12.1142857,5.33333333 L12.1142857,5.33333333 L3.88571429,5.33333333 C3.50651429,5.33333333 3.2,5.0944 3.2,4.8 C3.2,4.5056 3.50651429,4.26666667 3.88571429,4.26666667 L3.88571429,4.26666667 Z"/>
</svg>
