<svg xmlns="http://www.w3.org/2000/svg" width="3" height="13" viewBox="0 0 3 13" fill="rgba(194, 195, 200, 1)">
  <path fill-rule="evenodd" d="M1.5,9.9047619 C2.32842712,9.9047619 3,10.5763348 3,11.4047619 C3,12.233189 2.32842712,12.9047619 1.5,12.9047619 C0.671572875,12.9047619 0,12.233189 0,11.4047619 C0,10.5763348 0.671572875,9.9047619 1.5,9.9047619 Z M1.5,4.95238095 C2.32842712,4.95238095 3,5.62395383 3,6.45238095 C3,7.28080808 2.32842712,7.95238095 1.5,7.95238095 C0.671572875,7.95238095 0,7.28080808 0,6.45238095 C0,5.62395383 0.671572875,4.95238095 1.5,4.95238095 Z M1.5,-1.0658141e-13 C2.32842712,-1.0658141e-13 3,0.671572875 3,1.5 C3,2.32842712 2.32842712,3 1.5,3 C0.671572875,3 0,2.32842712 0,1.5 C0,0.671572875 0.671572875,-1.0658141e-13 1.5,-1.0658141e-13 Z"/>
</svg>
 