<svg xmlns="http://www.w3.org/2000/svg" width="20" height="20" viewBox="0 0 20 20">
  <path  d="M13.5,3.29587769 L13.5,1 C13.5,0.723857625 13.7238576,0.5 14,0.5 C14.2761424,0.5 14.5,0.723857625 14.5,1 L14.5,4 C14.5,4.04629573 14.493708,4.09112189 14.4819325,4.13367 L17.3955998,6.61963307 C17.6056706,6.79886712 17.6306688,7.11446111 17.4514347,7.32453196 C17.2722007,7.53460282 16.9566067,7.55960099 16.7465358,7.38036693 L9.90517215,1.54121112 C9.40525938,1.04129834 8.59474062,1.04129834 8.06580642,1.56802466 L1.25346415,7.38036693 C1.04339329,7.55960099 0.727799308,7.53460282 0.548565254,7.32453196 C0.3693312,7.11446111 0.394329368,6.79886712 0.604400225,6.61963307 L7.38772107,0.834104338 C8.27815813,-0.0563327279 9.72184187,-0.0563327279 10.5832575,0.807290794 L13.5,3.29587769 Z M14.5,15 L16,15 C16.2761424,15 16.5,15.2238576 16.5,15.5 C16.5,15.7761424 16.2761424,16 16,16 L2,16 C1.72385763,16 1.5,15.7761424 1.5,15.5 C1.5,15.2238576 1.72385763,15 2,15 L3.5,15 L3.5,8 C3.5,7.72385763 3.72385763,7.5 4,7.5 C4.27614237,7.5 4.5,7.72385763 4.5,8 L4.5,15 L13.5,15 L13.5,8 C13.5,7.72385763 13.7238576,7.5 14,7.5 C14.2761424,7.5 14.5,7.72385763 14.5,8 L14.5,15 Z M11.5,12 C11.2238576,12 11,11.7761424 11,11.5 C11,11.2238576 11.2238576,11 11.5,11 C11.7761424,11 12,11.2238576 12,11.5 C12,11.7761424 11.7761424,12 11.5,12 Z" transform="translate(1 2)"/>
</svg>
