<svg xmlns="http://www.w3.org/2000/svg" width="15" height="15" viewBox="0 0 15 15">
  <path  d="M8,9.79969751 C8.43043286,9.36509057 9.02511406,8.73858072 9.78280949,7.92133304 C9.97055415,7.71883229 10.2869106,7.70687011 10.4894113,7.89461478 C10.6919121,8.08235944 10.7038742,8.39871585 10.5161296,8.6012166 C8.4318542,10.8493089 7.87041873,11.4107443 7.5,11.4107443 C7.12958127,11.4107443 6.5681458,10.8493089 4.48387043,8.6012166 C4.29612577,8.39871585 4.30808794,8.08235944 4.51058869,7.89461478 C4.71308944,7.70687011 5.02944585,7.71883229 5.21719051,7.92133304 C5.97488594,8.73858072 6.56956714,9.36509057 7,9.79969751 L7,1.5 C7,1.22385763 7.22385763,1 7.5,1 C7.77614237,1 8,1.22385763 8,1.5 L8,9.79969751 Z M13.7543438,11.9996784 C13.7543438,11.723536 13.9782014,11.4996784 14.2543438,11.4996784 C14.5304862,11.4996784 14.7543438,11.723536 14.7543438,11.9996784 L14.7543438,13.9996784 C14.7543438,14.2758208 14.5304862,14.4996784 14.2543438,14.4996784 L1.25434378,14.4996784 C0.978201402,14.4996784 0.754343777,14.2758208 0.754343777,13.9996784 L0.754343777,11.9996784 C0.754343777,11.723536 0.978201402,11.4996784 1.25434378,11.4996784 C1.53048615,11.4996784 1.75434378,11.723536 1.75434378,11.9996784 L1.75434378,13.4996784 L13.7543438,13.4996784 L13.7543438,11.9996784 Z"/>
</svg>
