<svg xmlns="http://www.w3.org/2000/svg" width="24" height="24" viewBox="0 0 24 24">
  <path  d="M8.90354225,11.1092191 L1.02754073,4.76594529 C1.00953578,4.84102524 1,4.91939902 1,5 L1,18 C1,18.5522847 1.44771525,19 2,19 L22,19 C22.5522847,19 23,18.5522847 23,18 L23,5 C23,4.90821797 22.9876351,4.81932391 22.9644802,4.73489278 L15.1444669,11.0605927 L18.8701748,15.163889 C19.0558038,15.3683309 19.0405529,15.6845458 18.836111,15.8701748 C18.6316691,16.0558038 18.3154542,16.0405529 18.1298252,15.836111 L14.3657221,11.6905284 L13.5695384,12.3345707 C12.6541292,13.0750558 11.3461151,13.0764494 10.4291302,12.3379165 L9.6837242,11.7375719 L5.96233569,15.836111 C5.7767067,16.0405529 5.46049176,16.0558038 5.25604987,15.8701748 C5.05160798,15.6845458 5.03635712,15.3683309 5.22198611,15.163889 L8.90354225,11.1092191 Z M1.72007557,4.03970725 L11.0563828,11.5591006 C11.6065738,12.0022203 12.3913822,12.0013842 12.9406277,11.5570931 L22.245421,4.03033742 C22.1668967,4.01052473 22.0846774,4 22,4 L2,4 C1.90283206,4 1.80890099,4.01385868 1.72007557,4.03970725 Z M22.9132947,4.59209031 L22.5901744,4.19263973 C22.7297629,4.29485135 22.8418573,4.43238918 22.9132939,4.59208938 Z M2,3 L22,3 C23.1045695,3 24,3.8954305 24,5 L24,18 C24,19.1045695 23.1045695,20 22,20 L2,20 C0.8954305,20 1.3527075e-16,19.1045695 0,18 L0,5 C-1.3527075e-16,3.8954305 0.8954305,3 2,3 Z"/>
</svg>
