<svg xmlns="http://www.w3.org/2000/svg" width="15" height="15" viewBox="0 0 15 15">
  <path  d="M14.6,3 C14.8209139,3 15,3.22385763 15,3.5 C15,3.77614237 14.8209139,4 14.6,4 L3.4,4 C3.1790861,4 3,3.77614237 3,3.5 C3,3.22385763 3.1790861,3 3.4,3 L14.6,3 Z M14.6,7 C14.8209139,7 15,7.22385763 15,7.5 C15,7.77614237 14.8209139,8 14.6,8 L3.4,8 C3.1790861,8 3,7.77614237 3,7.5 C3,7.22385763 3.1790861,7 3.4,7 L14.6,7 Z M14.6,11 C14.8209139,11 15,11.2238576 15,11.5 C15,11.7761424 14.8209139,12 14.6,12 L3.4,12 C3.1790861,12 3,11.7761424 3,11.5 C3,11.2238576 3.1790861,11 3.4,11 L14.6,11 Z M1.5,4 C1.22385763,4 1,3.77614237 1,3.5 C1,3.22385763 1.22385763,3 1.5,3 C1.77614237,3 2,3.22385763 2,3.5 C2,3.77614237 1.77614237,4 1.5,4 Z M1.5,8 C1.22385763,8 1,7.77614237 1,7.5 C1,7.22385763 1.22385763,7 1.5,7 C1.77614237,7 2,7.22385763 2,7.5 C2,7.77614237 1.77614237,8 1.5,8 Z M1.5,12 C1.22385763,12 1,11.7761424 1,11.5 C1,11.2238576 1.22385763,11 1.5,11 C1.77614237,11 2,11.2238576 2,11.5 C2,11.7761424 1.77614237,12 1.5,12 Z"/>
</svg>
