<svg xmlns="http://www.w3.org/2000/svg" xmlns:xlink="http://www.w3.org/1999/xlink" width="24" height="24" viewBox="0 0 24 24">
  <defs>
    <path id="menu-a" d="M20.0066023,18 C20.5552407,18 21,17.5561352 21,17 L21,17 C21,16.4477153 20.5550537,16 20.0066023,16 L3.99339768,16 C3.44475929,16 3,16.4438648 3,17 L3,17 C3,17.5522847 3.44494629,18 3.99339768,18 L20.0066023,18 Z M20.0066023,13 C20.5552407,13 21,12.5561352 21,12 L21,12 C21,11.4477153 20.5550537,11 20.0066023,11 L3.99339768,11 C3.44475929,11 3,11.4438648 3,12 L3,12 C3,12.5522847 3.44494629,13 3.99339768,13 L20.0066023,13 Z M3,7 C3,7.55228475 3.44494629,8 3.99339768,8 L20.0066023,8 C20.5552407,8 21,7.55613518 21,7 L21,7 C21,6.44771525 20.5550537,6 20.0066023,6 L3.99339768,6 C3.44475929,6 3,6.44386482 3,7 L3,7 Z"/>
  </defs>
  <use  xlink:href="#menu-a"/>
</svg>
