<svg xmlns="http://www.w3.org/2000/svg" width="24" height="24" viewBox="0 0 24 24">
  <path  d="M14.4131657,21.0000469 C14.4464736,21.1636771 14.4634881,21.3311865 14.4634881,21.5000156 C14.4614787,22.8789844 13.3440021,24 11.9692825,24 C10.5945628,24 9.47708621,22.8789844 9.47703948,21.5000156 C9.47703948,21.3311865 9.494054,21.1636771 9.52736185,21.0000469 L2.49886191,21.0000469 C2.31942266,21.0000469 2.15297406,20.9030156 2.06423574,20.7460313 C1.97647873,20.5900313 1.97848808,20.397 2.07119836,20.2430156 L3.78386191,17.3810156 C4.57339462,16.0600313 4.9911049,14.5480313 4.9911049,13.0070156 L4.9911049,10.5 C4.9911049,7.33566319 7.09649342,4.6540898 9.97549743,3.79121465 L9.97549743,2.00001563 C9.97549743,0.897 10.869703,0 11.9692825,0 C13.0688619,0 13.9630675,0.897 13.9630675,2.00001563 L13.9630675,3.79121465 C16.8420715,4.6540898 18.94746,7.33566319 18.94746,10.5 L18.94746,13.0070156 C18.94746,14.5480313 19.3651703,16.0600313 20.154703,17.3810156 L21.8673666,20.2430156 C21.9600769,20.397 21.9620395,20.5899844 21.8742825,20.7460313 C21.7855909,20.9030625 21.6190956,21.0000469 21.4396563,21.0000469 L14.4131657,21.0000469 Z M13.3794782,21.0000469 L10.5610493,21.0000469 C10.504734,21.1596349 10.4749367,21.3306404 10.4749367,21.4999687 C10.4749367,22.3269844 11.1458245,22.9999687 11.9702638,22.9999687 C12.794703,22.9999687 13.4655909,22.3269844 13.4655909,21.4999687 C13.4655909,21.3306404 13.4357935,21.1596349 13.3794782,21.0000469 Z M12.9661516,3.57127055 L12.9661516,2.00001563 C12.9661516,1.44801563 12.5195628,1.00003125 11.9692825,1.00003125 C11.4190021,1.00003125 10.9724133,1.44801563 10.9724133,2.00001563 L10.9724133,3.57127055 C11.2980696,3.52431691 11.6309072,3.50001563 11.9692825,3.50001563 C12.3076577,3.50001563 12.6404954,3.52431691 12.9661516,3.57127055 Z M3.37914229,20.0000156 L20.5594227,20.0000156 L19.2993759,17.895 C18.4171329,16.419 17.9505909,14.7290156 17.9505909,13.0070156 L17.9505909,10.5 C17.9505909,7.191 15.2679741,4.5 11.9692825,4.5 C8.67059088,4.5 5.98797406,7.191 5.98797406,10.5 L5.98797406,13.0070156 C5.98797406,14.7290156 5.52143201,16.419 4.63820771,17.895 L3.37914229,20.0000156 Z"/>
</svg>
