<svg xmlns="http://www.w3.org/2000/svg" width="24" height="24" viewBox="0 0 24 24">
  <path  d="M23.1904988,5.9871734 C23.6921615,6.46603325 23.9885986,7.12731591 23.9885986,7.87980998 L23.9885986,19.2356295 C23.9885986,19.9653207 23.6693587,20.6494062 23.1904988,21.128266 C22.711639,21.6299287 22.0503563,21.9263658 21.2978622,21.9263658 L2.69073634,21.9263658 C1.96104513,21.9263658 1.27695962,21.6071259 0.798099762,21.128266 C0.296437055,20.6494062 2.68386e-13,19.9881235 2.7000624e-13,19.2356295 L2.7000624e-13,7.87980998 C2.7000624e-13,7.15011876 0.319239905,6.46603325 0.798099762,5.9871734 C1.27695962,5.48551069 1.93824228,5.18907363 2.69073634,5.18907363 L6.45320665,5.18907363 L6.45320665,5.14346793 C6.45320665,4.57339667 6.68123515,4.04893112 7.06888361,3.66128266 C7.45653207,3.2736342 7.98099762,3.0456057 8.57387173,3.0456057 L15.4147268,3.0456057 C15.9847981,3.0456057 16.5092637,3.2736342 16.8969121,3.66128266 C17.2845606,4.02612827 17.5125891,4.57339667 17.5125891,5.14346793 L17.5125891,5.18907363 L21.2978622,5.18907363 C22.0503563,5.18907363 22.711639,5.48551069 23.1904988,5.9871734 Z M22.8028504,19.2356295 L22.8028504,7.87980998 C22.8028504,7.46935867 22.6432304,7.10451306 22.3695962,6.83087886 C22.095962,6.55724466 21.7311164,6.3976247 21.3206651,6.3976247 L16.919715,6.3976247 C16.5776722,6.3976247 16.304038,6.1239905 16.304038,5.78194774 L16.304038,5.12066508 C16.304038,4.86983373 16.2128266,4.64180523 16.0532067,4.48218527 C15.8935867,4.32256532 15.6655582,4.23135392 15.4147268,4.23135392 L8.59667458,4.23135392 C8.34584323,4.23135392 8.11781473,4.32256532 7.95819477,4.48218527 C7.79857482,4.64180523 7.70736342,4.86983373 7.70736342,5.12066508 L7.70736342,5.78194774 C7.70736342,6.1239905 7.43372922,6.3976247 7.09168646,6.3976247 L2.69073634,6.3976247 C2.28028504,6.3976247 1.91543943,6.55724466 1.64180523,6.83087886 C1.36817102,7.10451306 1.20855107,7.46935867 1.20855107,7.87980998 L1.20855107,19.2356295 C1.20855107,19.6460808 1.36817102,20.0109264 1.64180523,20.2845606 C1.91543943,20.5581948 2.28028504,20.7178147 2.69073634,20.7178147 L21.2978622,20.7178147 C21.7083135,20.7178147 22.0731591,20.5581948 22.3467933,20.2845606 C22.6204276,20.0109264 22.7800475,19.6460808 22.7800475,19.2356295 L22.8028504,19.2356295 Z M11.9942993,7.94821853 C13.5448931,7.94821853 14.9586698,8.58669834 15.9619952,9.59002375 C16.9653207,10.5933492 17.6038005,12.0071259 17.6038005,13.5577197 C17.6038005,15.1083135 16.9881235,16.4992874 15.9619952,17.5254157 C14.9586698,18.5287411 13.5448931,19.1672209 11.9942993,19.1672209 C10.4437055,19.1672209 9.05273159,18.5515439 8.02660333,17.5254157 C7.02327791,16.5220903 6.3847981,15.1083135 6.3847981,13.5577197 C6.3847981,12.0071259 7.00047506,10.616152 8.02660333,9.59002375 C9.02992874,8.58669834 10.4437055,7.94821853 11.9942993,7.94821853 Z M15.0954869,16.6817102 C15.8935867,15.8836105 16.3952494,14.7890736 16.3724466,13.5805226 C16.3724466,12.3719715 15.8935867,11.2774347 15.0954869,10.4793349 C14.2973872,9.704038 13.2028504,9.2023753 11.9942993,9.2023753 C10.7857482,9.2023753 9.6912114,9.68123515 8.89311164,10.4793349 C8.11781473,11.2774347 7.61615202,12.3719715 7.61615202,13.5805226 C7.61615202,14.7890736 8.09501188,15.8836105 8.89311164,16.6817102 C9.6912114,17.4570071 10.7857482,17.9586698 11.9942993,17.9586698 C13.2028504,17.9586698 14.2973872,17.4570071 15.0954869,16.6817102 Z"/>
</svg>
