<svg xmlns="http://www.w3.org/2000/svg" width="15" height="15" viewBox="0 0 15 15">
  <path  d="M8,7 L14.5,7 C14.7761424,7 15,7.22385763 15,7.5 C15,7.77614237 14.7761424,8 14.5,8 L8,8 L8,14.5 C8,14.7761424 7.77614237,15 7.5,15 C7.22385763,15 7,14.7761424 7,14.5 L7,8 L0.5,8 C0.223857625,8 1.77635684e-15,7.77614237 1.77635684e-15,7.5 C1.77635684e-15,7.22385763 0.223857625,7 0.5,7 L7,7 L7,0.5 C7,0.223857625 7.22385763,1.11022302e-16 7.5,0 C7.77614237,-5.55111512e-17 8,0.223857625 8,0.5 L8,7 Z"/>
</svg>
