<svg xmlns="http://www.w3.org/2000/svg" width="11" height="15" viewBox="0 0 11 15">
  <path d="M10.4003906,0 C10.6431198,0 10.8398438,0.196723945 10.8398438,0.439453125 L10.8398438,0.439453125 L10.8398438,14.5605469 C10.8398438,14.8032761 10.6431198,15 10.4003906,15 L10.4003906,15 L0.439453125,15 C0.196723945,15 0,14.8032761 0,14.5605469 L0,14.5605469 L0,0.439453125 C0,0.196723945 0.196723945,0 0.439453125,0 L0.439453125,0 Z M9.9609375,0.87890625 L0.87890625,0.87890625 L0.87890625,14.1210938 L9.9609375,14.1210938 L9.9609375,0.87890625 Z M8.5,11 C8.77614237,11 9,11.2238576 9,11.5 C9,11.7761424 8.77614237,12 8.5,12 L2.5,12 C2.22385763,12 2,11.7761424 2,11.5 C2,11.2238576 2.22385763,11 2.5,11 L8.5,11 Z M8.5,9 C8.77614237,9 9,9.22385763 9,9.5 C9,9.77614237 8.77614237,10 8.5,10 L2.5,10 C2.22385763,10 2,9.77614237 2,9.5 C2,9.22385763 2.22385763,9 2.5,9 L8.5,9 Z M5.61835937,2 C5.86108855,2 6.0578125,2.19672395 6.0578125,2.43945312 L6.0578125,2.43945312 L6.0578125,2.5859375 L6.49726562,2.5859375 C6.7399948,2.5859375 6.93671875,2.78266145 6.93671875,3.02539062 C6.93671875,3.2681198 6.7399948,3.46484375 6.49726562,3.46484375 L6.49726562,3.46484375 L5.61835937,3.46484375 C5.37608796,3.46484375 5.17890625,3.66202546 5.17890625,3.90429688 C5.17890625,4.14656829 5.37608796,4.34375 5.61835937,4.34375 C6.34528809,4.34375 6.93671875,4.93518066 6.93671875,5.66210938 C6.93671875,6.23500062 6.56936342,6.72343443 6.0578125,6.90493774 L6.0578125,6.90493774 L6.0578125,7.12695312 C6.0578125,7.3696823 5.86108855,7.56640625 5.61835937,7.56640625 C5.3756302,7.56640625 5.17890625,7.3696823 5.17890625,7.12695312 L5.17890625,7.12695312 L5.17890625,6.98046875 L4.73945312,6.98046875 C4.49672395,6.98046875 4.3,6.7837448 4.3,6.54101562 C4.3,6.29828645 4.49672395,6.1015625 4.73945312,6.1015625 L4.73945312,6.1015625 L5.61835937,6.1015625 C5.86063079,6.1015625 6.0578125,5.90438079 6.0578125,5.66210938 C6.0578125,5.41983796 5.86063079,5.22265625 5.61835937,5.22265625 C4.89143066,5.22265625 4.3,4.63122559 4.3,3.90429688 C4.3,3.33140563 4.66735533,2.84297182 5.17890625,2.66146851 L5.17890625,2.66146851 L5.17890625,2.43945312 C5.17890625,2.19672395 5.3756302,2 5.61835937,2 Z"/>
</svg>
