<svg xmlns="http://www.w3.org/2000/svg" width="29" height="29">
    <path fill-rule="evenodd"
          d="M14,0 C21.7319865,0 28,6.2680135 28,14 C28,21.7319865 21.7319865,28 14,28 C6.2680135,28 0,21.7319865 0,14 C0,6.2680135 6.2680135,0 14,0 Z M21.2363961,6.7636039 C20.8849242,6.41213203 20.3150758,6.41213203 19.9636039,6.7636039 L19.9636039,6.7636039 L14,12.727 L8.0363961,6.7636039 C7.68492424,6.41213203 7.11507576,6.41213203 6.7636039,6.7636039 C6.41213203,7.11507576 6.41213203,7.68492424 6.7636039,8.0363961 L6.7636039,8.0363961 L12.727,14 L6.7636039,19.9636039 L6.68305826,20.0557686 C6.41457281,20.408534 6.44142136,20.9142136 6.7636039,21.2363961 L6.7636039,21.2363961 L6.85576862,21.3169417 C7.208534,21.5854272 7.71421356,21.5585786 8.0363961,21.2363961 L8.0363961,21.2363961 L14,15.273 L19.9636039,21.2363961 C20.3150758,21.587868 20.8849242,21.587868 21.2363961,21.2363961 C21.587868,20.8849242 21.587868,20.3150758 21.2363961,19.9636039 L21.2363961,19.9636039 L15.273,14 L21.2363961,8.0363961 L21.3169417,7.94423138 C21.5854272,7.591466 21.5585786,7.08578644 21.2363961,6.7636039 Z"
          transform="translate(.5 .5)"/>
</svg>
