<svg xmlns="http://www.w3.org/2000/svg" width="15" height="15" viewBox="0 0 15 15">
  <path fill-rule="evenodd" d="M6,0 C9.3137085,0 12,2.6862915 12,6 C12,7.40505959 11.5170368,8.69731708 10.708064,9.71981891 L15.1060297,14.1707069 C15.3001291,14.367125 15.2982494,14.6837019 15.1018313,14.8778012 C14.9272375,15.050334 14.6577033,15.0680191 14.4636402,14.9318684 L14.394737,14.8736029 L10.0238216,10.4507779 C8.95950176,11.4135966 7.54823181,12 6,12 C2.6862915,12 6.66133815e-13,9.3137085 6.66133815e-13,6 C6.66133815e-13,2.6862915 2.6862915,0 6,0 Z M6,1 C3.23857625,1 1,3.23857625 1,6 C1,8.76142375 3.23857625,11 6,11 C8.76142375,11 11,8.76142375 11,6 C11,3.23857625 8.76142375,1 6,1 Z"/>
</svg>
