<svg xmlns="http://www.w3.org/2000/svg" width="29" height="29" viewBox="0 0 29 29">
  <path d="M14.5,0.5 C22.2319865,0.5 28.5,6.7680135 28.5,14.5 C28.5,22.2319865 22.2319865,28.5 14.5,28.5 C6.7680135,28.5 0.5,22.2319865 0.5,14.5 C0.5,6.7680135 6.7680135,0.5 14.5,0.5 Z M14.5,1.5 C7.32029825,1.5 1.5,7.32029825 1.5,14.5 C1.5,21.6797017 7.32029825,27.5 14.5,27.5 C21.6797017,27.5 27.5,21.6797017 27.5,14.5 C27.5,7.32029825 21.6797017,1.5 14.5,1.5 Z M16.6413083,7 L21,11.3606287 L21,21.5 C21,22.3284271 20.3284271,23 19.5,23 L10.5,23 C9.67157288,23 9,22.3284271 9,21.5 L9,8.5 C9,7.67157288 9.67157288,7 10.5,7 L16.6413083,7 Z M15.751,8 L10.5,8 C10.2238576,8 10,8.22385763 10,8.5 L10,21.5 C10,21.7761424 10.2238576,22 10.5,22 L19.5,22 C19.7761424,22 20,21.7761424 20,21.5 L20,11.975 L16.2515718,11.9758528 C16.006112,11.9758528 15.8019635,11.7989776 15.7596275,11.5657284 L15.7515718,11.4758528 L15.751,8 Z M12.5,17.5 C12.7761424,17.5 13,17.7238576 13,18 C13,18.2761424 12.7761424,18.5 12.5,18.5 L12,18.5 C11.7238576,18.5 11.5,18.2761424 11.5,18 C11.5,17.7238576 11.7238576,17.5 12,17.5 L12.5,17.5 Z M18,17.5 C18.2761424,17.5 18.5,17.7238576 18.5,18 C18.5,18.2761424 18.2761424,18.5 18,18.5 L14,18.5 C13.7238576,18.5 13.5,18.2761424 13.5,18 C13.5,17.7238576 13.7238576,17.5 14,17.5 L18,17.5 Z M12.5,15.5 C12.7761424,15.5 13,15.7238576 13,16 C13,16.2761424 12.7761424,16.5 12.5,16.5 L12,16.5 C11.7238576,16.5 11.5,16.2761424 11.5,16 C11.5,15.7238576 11.7238576,15.5 12,15.5 L12.5,15.5 Z M18,15.5 C18.2761424,15.5 18.5,15.7238576 18.5,16 C18.5,16.2761424 18.2761424,16.5 18,16.5 L14,16.5 C13.7238576,16.5 13.5,16.2761424 13.5,16 C13.5,15.7238576 13.7238576,15.5 14,15.5 L18,15.5 Z M12.5,13.5 C12.7761424,13.5 13,13.7238576 13,14 C13,14.2761424 12.7761424,14.5 12.5,14.5 L12,14.5 C11.7238576,14.5 11.5,14.2761424 11.5,14 C11.5,13.7238576 11.7238576,13.5 12,13.5 L12.5,13.5 Z M18,13.5 C18.2761424,13.5 18.5,13.7238576 18.5,14 C18.5,14.2761424 18.2761424,14.5 18,14.5 L14,14.5 C13.7238576,14.5 13.5,14.2761424 13.5,14 C13.5,13.7238576 13.7238576,13.5 14,13.5 L18,13.5 Z M16.751,8.525 L16.7515718,10.9758528 L19.201,10.975 L16.751,8.525 Z"/>
</svg>
