<svg xmlns="http://www.w3.org/2000/svg" width="15" height="15" viewBox="0 0 15 15">
  <path  d="M7,2.61104683 C6.56956714,3.04565377 5.97488594,3.67216362 5.21719051,4.48941131 C5.02944585,4.69191206 4.71308944,4.70387423 4.51058869,4.51612957 C4.30808794,4.32838491 4.29612577,4.01202849 4.48387043,3.80952775 C6.5681458,1.56143547 7.12958127,1 7.5,1 C7.87041873,1 8.4318542,1.56143547 10.5161296,3.80952775 C10.7038742,4.01202849 10.6919121,4.32838491 10.4894113,4.51612957 C10.2869106,4.70387423 9.97055415,4.69191206 9.78280949,4.48941131 C9.02511406,3.67216362 8.43043286,3.04565377 8,2.61104683 L8,10.9107443 C8,11.1868867 7.77614237,11.4107443 7.5,11.4107443 C7.22385763,11.4107443 7,11.1868867 7,10.9107443 L7,2.61104683 Z M13.7543438,11.9996784 C13.7543438,11.723536 13.9782014,11.4996784 14.2543438,11.4996784 C14.5304862,11.4996784 14.7543438,11.723536 14.7543438,11.9996784 L14.7543438,13.9996784 C14.7543438,14.2758208 14.5304862,14.4996784 14.2543438,14.4996784 L1.25434378,14.4996784 C0.978201402,14.4996784 0.754343777,14.2758208 0.754343777,13.9996784 L0.754343777,11.9996784 C0.754343777,11.723536 0.978201402,11.4996784 1.25434378,11.4996784 C1.53048615,11.4996784 1.75434378,11.723536 1.75434378,11.9996784 L1.75434378,13.4996784 L13.7543438,13.4996784 L13.7543438,11.9996784 Z"/>
</svg>
