<?xml version="1.0" encoding="UTF-8"?>
<svg width="18px" height="16px" viewBox="0 0 18 16" version="1.1" xmlns="http://www.w3.org/2000/svg" xmlns:xlink="http://www.w3.org/1999/xlink">
    <!-- Generator: Sketch 53.2 (72643) - https://sketchapp.com -->
    <title>exclamation-triangle-solid</title>
    <desc>Created with Sketch.</desc>
    <g id="Page-1" stroke="none" stroke-width="1" fill="none" fill-rule="evenodd">
        <g id="exclamation-triangle-solid" fill="#F9A01C" fill-rule="nonzero">
            <path d="M17.7974063,13.7504063 C18.3742188,14.7502188 17.6501875,16 16.498125,16 L1.5016875,16 C0.34740625,16 -0.37328125,14.7482813 0.20240625,13.7504063 L7.70071875,0.74953125 C8.2778125,-0.25075 9.72321875,-0.2489375 10.2992812,0.74953125 L17.7974063,13.7504063 Z M9,11.0625 C8.20609375,11.0625 7.5625,11.7060938 7.5625,12.5 C7.5625,13.2939062 8.20609375,13.9375 9,13.9375 C9.79390625,13.9375 10.4375,13.2939062 10.4375,12.5 C10.4375,11.7060938 9.79390625,11.0625 9,11.0625 Z M7.63521875,5.8954375 L7.86703125,10.1454375 C7.877875,10.3443125 8.0423125,10.5 8.24146875,10.5 L9.75853125,10.5 C9.9576875,10.5 10.122125,10.3443125 10.1329687,10.1454375 L10.3647812,5.8954375 C10.3765,5.680625 10.2054687,5.5 9.99034375,5.5 L8.009625,5.5 C7.7945,5.5 7.6235,5.680625 7.63521875,5.8954375 L7.63521875,5.8954375 Z" id="Shape"></path>
        </g>
    </g>
</svg>