<?xml version="1.0" encoding="UTF-8"?>
<svg width="16px" height="16px" viewBox="0 0 16 16" version="1.1" xmlns="http://www.w3.org/2000/svg">
    <g id="Page-1" stroke="none" stroke-width="1" fill="none" fill-rule="evenodd">
        <g id="X" fill="#F85359" fill-rule="nonzero">
            <path d="M8,6.64235499 L14.3611775,0.281177491 C14.7360808,-0.09372583 15.3439192,-0.09372583 15.7188225,0.281177491 C16.0937259,0.656080811 16.0937259,1.26391919 15.7188225,1.63882251 L9.35764501,8 L15.7188225,14.3611775 C16.0937259,14.7360808 16.0937259,15.3439192 15.7188225,15.7188225 C15.3439192,16.0937259 14.7360808,16.0937259 14.3611775,15.7188225 L8,9.35764501 L1.63882251,15.7188225 C1.26391919,16.0937259 0.656080811,16.0937259 0.281177491,15.7188225 C-0.09372583,15.3439192 -0.09372583,14.7360808 0.281177491,14.3611775 L6.64235499,8 L0.281177491,1.63882251 C-0.09372583,1.26391919 -0.09372583,0.656080811 0.281177491,0.281177491 C0.656080811,-0.09372583 1.26391919,-0.09372583 1.63882251,0.281177491 L8,6.64235499 Z"
                  id="Combined-Shape"/>
        </g>
    </g>
</svg>
